<svg xmlns="http://www.w3.org/2000/svg" width="63" height="63" viewBox="0 0 63 63" fill="none">
  <path fill-rule="evenodd" clip-rule="evenodd" d="M35.156 30.7044C34.5538 32.2502 33.7172 33.6945 32.6755 34.9868C33.3245 35.667 34.0373 36.2836 34.8041 36.8283C35.2344 37.1145 35.6816 37.3747 36.143 37.6077C38.6591 38.8104 41.468 39.2682 44.2368 38.9267C43.785 37.5256 43.065 36.2254 42.1168 35.0982C40.3154 32.9488 37.8789 31.4228 35.156 30.7386M9.40697 11.5618C9.74171 11.322 10.0936 11.0993 10.4455 10.8852C12.3725 9.73638 14.5097 8.98258 16.7321 8.66786C18.9545 8.35315 21.2175 8.48384 23.3887 9.05229C26.6218 9.9344 29.527 11.7381 31.7485 14.2426C32.2201 13.8598 32.7161 13.5079 33.2334 13.1891C35.5703 11.7207 38.3025 11.0032 41.0611 11.1336C42.8947 11.2612 44.6669 11.8455 46.2158 12.833C47.7647 13.8205 49.0408 15.1797 49.9273 16.7864C51.1518 18.9739 51.5334 21.5324 51.0002 23.9809C50.7717 24.9767 50.3296 25.9112 49.7043 26.72C49.079 27.5288 48.2854 28.1927 47.3782 28.6659C45.725 29.4951 43.8211 29.6783 42.0396 29.1798C41.1609 28.9666 40.3567 28.5194 39.7128 27.8859C39.0688 27.2523 38.6093 26.4563 38.3832 25.5825C38.1834 24.8502 38.1822 24.0781 38.3798 23.3452C38.5774 22.6123 38.9666 21.9449 39.5076 21.4114C39.9739 21.0148 40.5341 20.7437 41.135 20.6238C41.7358 20.5039 42.3574 20.5391 42.9408 20.7262L43.7991 20.9575L43.3356 22.6705L42.4773 22.4392C42.1741 22.3264 41.8467 22.2947 41.5275 22.3473C41.2083 22.3999 40.9084 22.5349 40.6577 22.739C40.3432 23.0681 40.1219 23.4746 40.0163 23.917C39.9108 24.3594 39.9248 24.8218 40.0569 25.2571C40.2096 25.8308 40.5166 26.3519 40.9447 26.7641C41.3729 27.1762 41.9058 27.4637 42.4859 27.5953C43.8474 27.9793 45.3034 27.845 46.5714 27.2184C47.2553 26.8573 47.8526 26.3525 48.3223 25.7389C48.792 25.1253 49.1229 24.4174 49.2922 23.664C49.7317 21.6217 49.4082 19.4895 48.3824 17.6686C47.6502 16.3073 46.5863 15.1521 45.2887 14.3093C43.9912 13.4666 42.5018 12.9635 40.9581 12.8465C38.5575 12.7325 36.1794 13.3542 34.1432 14.628C33.6922 14.9089 33.2593 15.2179 32.8472 15.5531C35.1976 18.5484 36.3888 22.288 36.2031 26.0879C36.1349 27.0902 35.9652 28.0831 35.6967 29.0513C38.7192 29.8437 41.4192 31.5561 43.4214 33.9505C44.5611 35.3236 45.4134 36.9108 45.9277 38.6183C48.8918 38.0244 51.618 36.5809 53.7725 34.4644C55.1926 33.0385 56.3135 31.3444 57.0695 29.4811C57.8256 27.6178 58.2016 25.6227 58.1756 23.6126C58.0383 16.9063 53.6609 10.6539 48.2365 6.97102C40.0655 1.4381 30.3066 0.461698 21.0112 3.54506C18.0071 4.57285 11.8274 8.56409 9.39839 11.5275L9.40697 11.5618ZM33.9973 28.6916C34.2482 27.7962 34.4092 26.8781 34.4779 25.9508C34.5122 25.4375 34.5122 24.9225 34.4779 24.4092C34.2605 21.6346 33.2507 18.9803 31.5683 16.7607C30.5828 17.8543 29.8139 19.1243 29.3024 20.5036C28.3413 23.136 28.2332 26.0031 28.9934 28.7002C30.6484 28.4414 32.3337 28.4414 33.9887 28.7002L33.9973 28.6916ZM31.5168 33.6678C32.2928 32.6528 32.9333 31.5415 33.4222 30.3618C32.1543 30.199 30.8707 30.199 29.6028 30.3618C30.0881 31.5459 30.7288 32.6606 31.5082 33.6764L31.5168 33.6678ZM15.7927 20.0154C13.7946 20.6538 12.1 22.0006 11.0292 23.8011C10.228 25.119 9.77123 26.6165 9.70074 28.1563C9.63026 29.6962 9.94832 31.229 10.6258 32.6143C11.7253 34.7447 13.45 36.4897 15.5696 37.6162C16.0352 37.8674 16.5169 38.0877 17.0115 38.2757C18.4406 34.7454 21.0939 31.8454 24.4873 30.1048C25.3812 29.6676 26.3154 29.3177 27.2768 29.0599C26.4446 26.0431 26.5767 22.8424 27.6544 19.904C28.2811 18.2345 29.2386 16.7081 30.4697 15.416C28.4851 13.1533 25.8852 11.514 22.9853 10.6968C21.0372 10.1873 19.0069 10.0703 17.013 10.3527C15.0191 10.635 13.1016 11.311 11.3725 12.3412C5.62187 15.8186 2.38608 22.7304 1.93118 29.2569C1.2102 39.0808 5.24422 48.0055 12.5827 54.4805C14.9688 56.5875 21.5691 59.9449 25.3113 60.5445C24.9336 60.3732 24.5646 60.1933 24.2041 59.9963C22.2419 58.9046 20.5177 57.4333 19.1324 55.6685C17.747 53.9037 16.7284 51.8809 16.1361 49.7184C15.2899 46.4842 15.4032 43.0743 16.4622 39.9031C13.2748 38.7245 10.6386 36.4083 9.06365 33.4023C8.25895 31.7541 7.8813 29.9309 7.96527 28.0995C8.04924 26.268 8.59214 24.4868 9.5443 22.9189C10.8251 20.7499 12.8592 19.1255 15.2606 18.3538C16.2395 18.0542 17.2719 17.9695 18.2867 18.1055C19.3016 18.2415 20.2749 18.595 21.1399 19.1417C22.683 20.1586 23.7908 21.713 24.247 23.5013C24.5019 24.3634 24.5192 25.2782 24.2972 26.1494C24.0751 27.0205 23.622 27.8159 22.9853 28.4518C22.4442 29.0012 21.7659 29.3965 21.0205 29.5968C20.2751 29.797 19.4896 29.795 18.7453 29.5909C18.1638 29.3881 17.6448 29.0385 17.2387 28.5763C16.8326 28.114 16.5533 27.5548 16.4279 26.9529L16.2133 26.0964L17.9299 25.6596L18.1531 26.5161C18.2082 26.8334 18.3447 27.1311 18.5492 27.3803C18.7538 27.6294 19.0194 27.8215 19.3203 27.9379C19.7636 28.0409 20.2261 28.0271 20.6625 27.898C21.0988 27.7688 21.494 27.5288 21.8094 27.2013C22.2294 26.7808 22.5265 26.2539 22.6687 25.6774C22.8109 25.1008 22.7927 24.4965 22.6162 23.9295C22.2743 22.5453 21.4224 21.3405 20.2301 20.555C19.5742 20.1487 18.8374 19.89 18.0711 19.7968C17.3047 19.7036 16.5272 19.7782 15.7927 20.0154ZM30.3409 35.0125C29.2982 33.7194 28.4589 32.2753 27.8518 30.7301C26.9652 30.9645 26.103 31.2828 25.2769 31.6808C24.813 31.9078 24.363 32.1624 23.9294 32.443C21.6153 34.0081 19.7986 36.2014 18.6938 38.7639C20.1336 39.0751 21.6202 39.1042 23.0711 38.8496C25.8397 38.3688 28.3846 37.0256 30.3409 35.0125ZM29.4225 50.7805C30.9703 52.1891 32.9841 52.9789 35.0787 52.9988C36.6231 53.0343 38.1516 52.6819 39.5239 51.974C40.8962 51.2661 42.0682 50.2254 42.9322 48.9476C44.2369 46.934 44.89 44.569 44.8033 42.1728C44.7866 41.6446 44.735 41.1182 44.6488 40.5968C40.8727 41.1278 37.0311 40.2858 33.8256 38.2243C32.9912 37.6632 32.2149 37.0205 31.5082 36.3058C29.3126 38.5487 26.4664 40.0467 23.3715 40.5883C21.611 40.8933 19.8069 40.8409 18.0672 40.4341C17.1077 43.2908 16.9974 46.3637 17.7497 49.2816C18.2833 51.2197 19.1978 53.0325 20.4399 54.6146C21.6821 56.1968 23.2271 57.5167 24.9851 58.4975C30.8731 61.6665 38.4948 61.0412 44.4428 58.2405C53.3262 53.9581 59.0339 46.0013 61.008 36.4171C61.6431 33.2995 61.2569 25.9251 59.9094 22.3878C59.9094 22.799 59.9695 23.2443 59.978 23.6212C60.0128 25.8606 59.5996 28.0844 58.7624 30.1625C57.9253 32.2405 56.6812 34.1311 55.1029 35.7234C52.7144 38.074 49.6944 39.6835 46.4083 40.357C46.5121 40.9543 46.5723 41.5582 46.5886 42.1642C46.6832 44.9191 45.9283 47.6367 44.4256 49.9497C43.3998 51.4716 42.0069 52.7117 40.3751 53.5559C38.7433 54.4 36.9249 54.821 35.0873 54.7803C32.5632 54.7502 30.1381 53.7962 28.2724 52.0995C27.5226 51.4043 26.9332 50.5548 26.5449 49.6098C26.1566 48.6648 25.9788 47.6469 26.0237 46.6265C26.1304 44.7849 26.9233 43.0496 28.2467 41.7616C28.8706 41.1099 29.6593 40.6386 30.5295 40.3974C31.3998 40.1561 32.3191 40.154 33.1905 40.3913C33.9395 40.5843 34.6232 40.9735 35.1709 41.5186C35.7186 42.0637 36.1106 42.7449 36.3061 43.4918C36.4184 44.0948 36.3731 44.7166 36.1747 45.2971C35.9763 45.8777 35.6313 46.3975 35.1732 46.8064L34.5552 47.4145L33.2849 46.1212L33.9115 45.5045C34.1577 45.2986 34.3464 45.0327 34.4591 44.7325C34.5719 44.4324 34.605 44.1082 34.5552 43.7915C34.4257 43.3558 34.1827 42.9621 33.851 42.6506C33.5193 42.3391 33.1107 42.121 32.6669 42.0186C32.0923 41.863 31.4859 41.8678 30.9138 42.0324C30.3418 42.197 29.8259 42.5152 29.4225 42.9522C28.4105 43.934 27.7989 45.2553 27.7059 46.6608C27.6754 47.4306 27.8132 48.1979 28.1096 48.9093C28.406 49.6207 28.854 50.2592 29.4225 50.7805ZM0 31.5437C0.0314864 38.04 2.06295 44.3697 5.81928 49.6756C6.85163 51.1602 8.02429 52.5427 9.32115 53.8039C9.72455 54.1636 10.1022 54.6604 10.7974 55.2342C11.0206 55.4227 11.1064 55.4398 11.3296 55.6282C15.2872 58.9915 20.0313 61.304 25.1225 62.3517C28.9076 63.2082 31.1306 63.0283 34.8899 62.857C38.1139 62.462 41.2627 61.5992 44.2368 60.2961C46.0016 59.5534 47.6796 58.6199 49.2407 57.5125L53.9785 53.5726L54.4248 53.0844L55.3604 52.0567L56.6049 50.5321C58.4689 48.101 59.9507 45.4006 60.9994 42.5239C61.7072 40.6097 62.2359 38.6342 62.5787 36.6227C62.973 34.3325 63.0911 32.0034 62.9306 29.6851C62.653 24.9269 61.3035 20.2925 58.9824 16.1269L57.489 13.703C57.2143 13.3176 56.9654 12.9408 56.6307 12.5382C56.2959 12.1357 56.1157 11.8701 55.7724 11.4847L54.8626 10.4227C53.3186 8.7416 51.6107 7.2181 49.7643 5.87471L48.6056 5.08674C47.8368 4.56969 47.0403 4.09505 46.2195 3.66497C45.7646 3.43372 45.4384 3.28811 44.9749 3.05686C42.7619 1.95235 40.4129 1.14317 37.9884 0.650125C31.3077 -0.715521 24.3647 0.082643 18.1702 2.92839C16.4689 3.73293 14.8381 4.67838 13.2951 5.75481C12.8659 6.04601 12.5655 6.32009 12.1707 6.6113C10.7385 7.69935 9.41878 8.92737 8.2311 10.2771C7.92212 10.6197 7.63029 10.9023 7.3728 11.2535C5.03951 14.086 3.20264 17.2915 1.93976 20.7348C1.77668 21.223 1.61361 21.6427 1.48486 22.1052C0.857794 24.0908 0.429411 26.1335 0.205992 28.2034L0.0772472 30.7729C0.0772472 30.9356 0.0772472 31.0041 0.0772472 31.1069C0.0309904 31.2481 0.00498374 31.3952 0 31.5437Z" fill="#F78D1E"/>
</svg>